<svg width="24" height="18" viewBox="0 0 24 18" fill="none" xmlns="http://www.w3.org/2000/svg">
<path d="M0.5 17.9875V12.7687H2.57828V15.9093H5.71885V17.9875H0.5ZM18.2812 17.9875V15.9093H21.4217V12.7687H23.5V17.9875H18.2812ZM3.83451 14.653V3.34697H5.71885V14.653H3.83451ZM6.97508 14.653V3.34697H8.23131V14.653H6.97508ZM10.1157 14.653V3.34697H12V14.653H10.1157ZM13.2562 14.653V3.34697H15.7687V14.653H13.2562ZM16.7109 14.653V3.34697H17.9671V14.653H16.7109ZM18.9093 14.653V3.34697H20.1655V14.653H18.9093ZM0.5 5.23132V0.0124664H5.71885V2.09074H2.57828V5.23132H0.5ZM21.4217 5.23132V2.09074H18.2812V0.0124664H23.5V5.23132H21.4217Z" fill="#6EACDA"/>
</svg>
