<svg width="15" height="20" viewBox="0 0 15 20" fill="none" xmlns="http://www.w3.org/2000/svg">
<path d="M6.57608 10.4473H8.42392V6.33783H6.57608V10.4473ZM7.51266 13.5157C7.76154 13.5157 7.97867 13.4258 8.16407 13.2459C8.34946 13.0661 8.44215 12.8458 8.44215 12.5849C8.44215 12.3241 8.35072 12.101 8.16786 11.9158C7.98501 11.7304 7.76238 11.6377 7.5 11.6377C7.25956 11.6377 7.04243 11.7286 6.8486 11.9105C6.65476 12.0921 6.55785 12.3134 6.55785 12.5743C6.55785 12.8351 6.65476 13.0573 6.8486 13.2406C7.04243 13.424 7.26379 13.5157 7.51266 13.5157ZM0 16.8588V14.7567H1.14299V8.88418C1.14299 7.36272 1.6058 6.01956 2.53141 4.8547C3.45684 3.68984 4.66138 2.96634 6.14502 2.6842V1.39026C6.14502 1.0139 6.27672 0.693941 6.54012 0.430374C6.80368 0.166977 7.12364 0.0352783 7.5 0.0352783C7.87635 0.0352783 8.19632 0.166977 8.45988 0.430374C8.72328 0.693941 8.85498 1.0139 8.85498 1.39026V2.6842C10.3427 2.96634 11.5482 3.68883 12.4716 4.85166C13.3952 6.01449 13.857 7.35867 13.857 8.88418V14.7567H15V16.8588H0ZM7.50076 19.9646C6.97785 19.9646 6.53193 19.7796 6.163 19.4095C5.79425 19.0393 5.60987 18.5944 5.60987 18.0745H9.39621C9.39621 18.6013 9.21057 19.048 8.83928 19.4145C8.46816 19.7812 8.02198 19.9646 7.50076 19.9646ZM3.24511 14.7567H11.7549V8.88418C11.7549 7.70227 11.3412 6.69764 10.5139 5.8703C9.68654 5.04296 8.68191 4.62929 7.5 4.62929C6.31809 4.62929 5.31346 5.04296 4.48612 5.8703C3.65878 6.69764 3.24511 7.70227 3.24511 8.88418V14.7567Z" fill="#939FAF"/>
</svg>
