<svg width="16" height="18" viewBox="0 0 16 18" fill="none" xmlns="http://www.w3.org/2000/svg">
<path d="M1.9295 18C1.39513 18 0.939955 17.8117 0.563973 17.4352C0.187991 17.0586 0 16.6119 0 16.095V4.10833C0 3.59146 0.187991 3.14475 0.563973 2.76819C0.939955 2.39163 1.39513 2.20335 1.9295 2.20335H3.53657V0H5.33821V2.20335H10.6618V0H12.4634V2.20335H14.0705C14.6049 2.20335 15.06 2.39163 15.436 2.76819C15.812 3.14475 16 3.59146 16 4.10833V16.095C16 16.6119 15.812 17.0586 15.436 17.4352C15.06 17.8117 14.6049 18 14.0705 18H1.9295ZM1.9295 16.095H14.0705V7.89832H1.9295V16.095ZM1.9295 6.24581H14.0705V4.10833H1.9295V6.24581Z" fill="#939FAF"/>
</svg>
