<svg width="16" height="18" viewBox="0 0 16 18" fill="none" xmlns="http://www.w3.org/2000/svg">
<path d="M3.5555 18C2.95675 18 2.44674 17.7903 2.02546 17.3708C1.60419 16.9513 1.39355 16.4435 1.39355 15.8473V3.54035H0V1.38761H5.35617V0H10.6313V1.38761H16V3.54035H14.6065V15.8361C14.6065 16.4449 14.3958 16.9578 13.9745 17.3747C13.5533 17.7916 13.0433 18 12.4445 18H3.5555ZM12.4445 3.54035H3.5555V15.8473H12.4445V3.54035Z" fill="#021526"/>
<path d="M7.9995 11.1252L5.93444 13.1815L4.5 11.7532L6.56505 9.69692L4.5 7.64066L5.93444 6.21234L7.9995 8.26859L10.0646 6.21234L11.499 7.64066L9.43394 9.69692L11.499 11.7532L10.0646 13.1815L7.9995 11.1252Z" fill="#FF5353"/>
</svg>
