<svg width="41" height="20" viewBox="0 0 41 20" fill="none" xmlns="http://www.w3.org/2000/svg">
<path d="M0.5 19.1137V17.1672C0.5 15.7782 1.1187 14.6828 2.35609 13.8811C3.59377 13.0796 5.27058 12.6789 7.38652 12.6789C7.76536 12.6789 8.16101 12.7034 8.57348 12.7524C8.98594 12.8014 9.41522 12.8693 9.8613 12.9563C9.43551 13.4693 9.10435 14.0463 8.86783 14.6872C8.63159 15.3283 8.51348 15.9635 8.51348 16.5928V19.1137H0.5ZM10.9348 19.1137V16.8963C10.9348 16.2021 11.1199 15.5676 11.49 14.9928C11.8601 14.4177 12.3596 13.9954 12.9883 13.7259C14.1967 13.1661 15.4236 12.7392 16.6691 12.445C17.9143 12.1505 19.1823 12.0032 20.473 12.0032C21.7887 12.0032 23.0691 12.1505 24.3143 12.445C25.5596 12.7392 26.7864 13.1661 27.9948 13.7259C28.6238 13.9954 29.1261 14.4177 29.5017 14.9928C29.8774 15.5676 30.0652 16.2021 30.0652 16.8963V19.1137H10.9348ZM32.4865 19.1137V16.5572C32.4865 15.8754 32.3657 15.2331 32.1239 14.6302C31.8819 14.0273 31.548 13.4693 31.1222 12.9563C31.6372 12.8693 32.0938 12.8014 32.4917 12.7524C32.8897 12.7034 33.2693 12.6789 33.6304 12.6789C35.7464 12.6789 37.4203 13.0825 38.6522 13.8898C39.8841 14.6967 40.5 15.7892 40.5 17.1672V19.1137H32.4865ZM13.1991 16.8528H27.7843V16.6689C27.693 16.0535 26.8948 15.4989 25.3896 15.005C23.8846 14.5111 22.2548 14.2641 20.5 14.2641C18.7452 14.2641 17.1154 14.5111 15.6104 15.005C14.1052 15.4989 13.3014 16.0535 13.1991 16.6689V16.8528ZM7.37261 10.6419C6.64594 10.6419 6.02841 10.3864 5.52 9.87542C5.01159 9.36412 4.75739 8.74948 4.75739 8.03151C4.75739 7.306 5.01304 6.68629 5.52435 6.17238C6.03565 5.65847 6.65015 5.40151 7.36783 5.40151C8.09362 5.40151 8.71623 5.65499 9.23565 6.16194C9.75536 6.6689 10.0152 7.29078 10.0152 8.0276C10.0152 8.74267 9.76188 9.35716 9.25522 9.87107C8.74884 10.385 8.1213 10.6419 7.37261 10.6419ZM33.6213 10.6419C32.9028 10.6419 32.2865 10.3847 31.7726 9.8702C31.2587 9.35542 31.0017 8.74426 31.0017 8.03673C31.0017 7.30774 31.2591 6.68629 31.7739 6.17238C32.2884 5.65847 32.9022 5.40151 33.6152 5.40151C34.35 5.40151 34.9743 5.65499 35.4883 6.16194C36.0022 6.6689 36.2591 7.28905 36.2591 8.02238C36.2591 8.74789 36.0064 9.36586 35.5009 9.87629C34.9951 10.3867 34.3685 10.6419 33.6213 10.6419ZM20.4843 9.91629C19.2461 9.91629 18.1867 9.47731 17.3061 8.59933C16.4255 7.72165 15.9852 6.65571 15.9852 5.40151C15.9852 4.15107 16.4241 3.086 17.3017 2.20629C18.1797 1.32629 19.2458 0.886292 20.5 0.886292C21.7501 0.886292 22.8152 1.32571 23.6952 2.20455C24.5749 3.0831 25.0148 4.15397 25.0148 5.41716C25.0148 6.65513 24.5755 7.71455 23.697 8.59542C22.8181 9.476 21.7472 9.91629 20.4843 9.91629ZM20.5083 7.65542C21.1387 7.65542 21.6706 7.436 22.1039 6.99716C22.5375 6.55803 22.7543 6.02325 22.7543 5.39281C22.7543 4.76267 22.5383 4.23078 22.1061 3.79716C21.6739 3.36383 21.1386 3.14716 20.5 3.14716C19.8754 3.14716 19.3435 3.36325 18.9043 3.79542C18.4652 4.2273 18.2457 4.76267 18.2457 5.40151C18.2457 6.02615 18.4652 6.55803 18.9043 6.99716C19.3435 7.436 19.8781 7.65542 20.5083 7.65542Z" fill="#B3BDCD"/>
</svg>
