<svg width="20" height="16" viewBox="0 0 20 16" fill="none" xmlns="http://www.w3.org/2000/svg">
<path d="M10 0C14.9841 0 19.1307 3.44868 20 8C19.1307 12.5513 14.9841 16 10 16C5.01587 16 0.869343 12.5513 0 8C0.869343 3.44868 5.01587 0 10 0ZM10 14.2222C13.9151 14.2222 17.2653 11.6018 18.1133 8C17.2653 4.39825 13.9151 1.77778 10 1.77778C6.08484 1.77778 2.73471 4.39825 1.88669 8C2.73471 11.6018 6.08484 14.2222 10 14.2222ZM10 12C7.70277 12 5.8405 10.2092 5.8405 8C5.8405 5.79086 7.70277 4 10 4C12.2972 4 14.1595 5.79086 14.1595 8C14.1595 10.2092 12.2972 12 10 12ZM10 10.2222C11.2763 10.2222 12.3109 9.22729 12.3109 8C12.3109 6.77271 11.2763 5.77778 10 5.77778C8.7238 5.77778 7.68916 6.77271 7.68916 8C7.68916 9.22729 8.7238 10.2222 10 10.2222Z" fill="#B3BDCD"/>
</svg>
