<svg width="19" height="20" viewBox="0 0 19 20" fill="none" xmlns="http://www.w3.org/2000/svg">
<path d="M6.93248 8.03906C5.94379 8.03906 5.10305 7.69275 4.41026 7.00011C3.71747 6.30733 3.37108 5.46659 3.37108 4.47789C3.37108 3.4892 3.71747 2.64932 4.41026 1.95825C5.10289 1.26733 5.94363 0.921875 6.93248 0.921875C7.92117 0.921875 8.76191 1.26772 9.4547 1.95942C10.1475 2.65111 10.4939 3.49053 10.4939 4.47766C10.4939 5.46651 10.1475 6.30733 9.4547 7.00011C8.76207 7.69275 7.92133 8.03906 6.93248 8.03906ZM6.93716 6.09601C7.38352 6.09601 7.76409 5.93713 8.07888 5.61938C8.39351 5.30147 8.55083 4.91933 8.55083 4.47298C8.55083 4.02662 8.39188 3.64706 8.07396 3.3343C7.75621 3.02139 7.37415 2.86493 6.9278 2.86493C6.48144 2.86493 6.10087 3.02334 5.78608 3.34016C5.47145 3.65697 5.31413 4.03786 5.31413 4.48281C5.31413 4.92917 5.47308 5.30966 5.791 5.62429C6.10875 5.93877 6.49081 6.09601 6.93716 6.09601ZM17.6214 19.0782L14.8035 16.2603C14.4795 16.4438 14.1442 16.5904 13.7978 16.6999C13.4515 16.8095 13.0937 16.8643 12.7244 16.8643C11.5962 16.8643 10.6372 16.4694 9.84753 15.6797C9.05766 14.8898 8.66273 13.9308 8.66273 12.8026C8.66273 11.6744 9.05766 10.7154 9.84753 9.92569C10.6372 9.13583 11.5962 8.7409 12.7244 8.7409C13.8526 8.7409 14.8117 9.13583 15.6015 9.92569C16.3912 10.7154 16.7861 11.6744 16.7861 12.8026C16.7861 13.1718 16.7313 13.5296 16.6218 13.8759C16.5122 14.2224 16.3656 14.5576 16.1821 14.8816L19 17.6995L17.6214 19.0782ZM12.7179 14.9212C13.3092 14.9212 13.8113 14.7171 14.2241 14.3088C14.6367 13.9005 14.843 13.4007 14.843 12.8094C14.843 12.2179 14.6389 11.7158 14.2306 11.3032C13.8224 10.8904 13.3225 10.684 12.7312 10.684C12.1397 10.684 11.6376 10.8882 11.225 11.2966C10.8122 11.7049 10.6058 12.2047 10.6058 12.796C10.6058 13.3874 10.81 13.8894 11.2184 14.3022C11.6267 14.7149 12.1265 14.9212 12.7179 14.9212ZM0 15.1621V12.7132C0 12.2922 0.107765 11.9022 0.323296 11.5431C0.538982 11.1842 0.833405 10.9035 1.20656 10.7013C2.24036 10.1045 3.35976 9.67083 4.56477 9.40037C5.76977 9.12975 6.9967 9.06989 8.24556 9.22081C8.01786 9.51157 7.81466 9.81926 7.63596 10.1439C7.4571 10.4685 7.32148 10.7891 7.22909 11.1058C6.34324 11.0673 5.47301 11.1583 4.61838 11.379C3.76375 11.5997 2.95835 11.9348 2.2022 12.3845C2.12308 12.4194 2.0601 12.4684 2.01328 12.5315C1.96646 12.5945 1.94305 12.6625 1.94305 12.7354V13.219H6.97275C7.00021 13.5454 7.05187 13.8686 7.12772 14.1887C7.20357 14.5088 7.32445 14.8333 7.49035 15.1621H0Z" fill="#6EACDA"/>
</svg>
