<svg width="11" height="18" viewBox="0 0 11 18" fill="none" xmlns="http://www.w3.org/2000/svg">
<path d="M11 12.9107C11 14.3333 10.4613 15.5371 9.38391 16.5221C8.30651 17.5074 7.00989 18 5.49404 18C3.95986 18 2.66064 17.4889 1.59639 16.4666C0.532128 15.4442 0 14.2053 0 12.7501V3.70117C0 2.66636 0.390358 1.79076 1.17107 1.07436C1.95179 0.358121 2.89455 0 3.99936 0C5.12039 0 6.06526 0.377247 6.83397 1.13174C7.60268 1.88639 7.98704 2.79642 7.98704 3.86183V12.3544C7.98704 13.0016 7.74405 13.5489 7.25807 13.9963C6.77209 14.4437 6.18408 14.6674 5.49404 14.6674C4.79021 14.6674 4.20074 14.4349 3.72563 13.9697C3.25036 13.5044 3.01272 12.9354 3.01272 12.2626V3.54097H4.97408V12.3544C4.97408 12.4916 5.02347 12.604 5.12225 12.6915C5.22088 12.7792 5.34481 12.823 5.49404 12.823C5.64343 12.823 5.76939 12.7801 5.87191 12.6943C5.97442 12.6086 6.02568 12.4953 6.02568 12.3544V3.70668C6.02957 3.18583 5.83184 2.74524 5.43248 2.3849C5.03312 2.02471 4.55379 1.84462 3.99449 1.84462C3.43519 1.84462 2.95651 2.03144 2.55845 2.40509C2.16039 2.7789 1.96136 3.22623 1.96136 3.74707V12.9107C1.96525 13.8214 2.31262 14.5861 3.00347 15.2047C3.69449 15.8232 4.52662 16.1401 5.49988 16.1554C6.47703 16.1707 7.31306 15.85 8.00796 15.1933C8.70271 14.5364 9.04627 13.7373 9.03864 12.796V3.33257H11V12.9107Z" fill="#6EACDA"/>
</svg>
