<svg width="40" height="40" viewBox="0 0 40 40" fill="none" xmlns="http://www.w3.org/2000/svg">
<rect width="40" height="40" fill="white"/>
<path fill-rule="evenodd" clip-rule="evenodd" d="M25.6036 22.5516V33H26C30.4183 33 34 29.4183 34 25V14C34 9.58172 30.4183 6 26 6H15C10.5817 6 7 9.58172 7 14V25C7 29.4183 10.5817 33 15 33H21.409V22.5516H17.9016V18.4897H21.409V15.4943C21.409 12.018 23.5319 10.1251 26.6332 10.1251C28.1187 10.1251 29.3953 10.2357 29.7675 10.2851V13.918L27.6165 13.919C25.93 13.919 25.6036 14.7205 25.6036 15.8965V18.4897H29.6257L29.102 22.5516H25.6036Z" fill="#A9A9A9"/>
</svg>
