<svg width="15" height="20" viewBox="0 0 15 20" fill="none" xmlns="http://www.w3.org/2000/svg">
<path d="M9.74909 15.0884C10.0615 15.0884 10.327 14.9791 10.5456 14.7604C10.7643 14.5418 10.8736 14.2762 10.8736 13.9639C10.8736 13.6515 10.7643 13.386 10.5456 13.1673C10.327 12.9487 10.0615 12.8393 9.74909 12.8393C9.43671 12.8393 9.1712 12.9487 8.95253 13.1673C8.73387 13.386 8.62454 13.6515 8.62454 13.9639C8.62454 14.2762 8.73387 14.5418 8.95253 14.7604C9.1712 14.9791 9.43671 15.0884 9.74909 15.0884ZM5.3212 15.0884L10.8736 9.53598L9.6788 8.34115L4.12637 13.8936L5.3212 15.0884ZM5.25091 10.5902C5.56329 10.5902 5.8288 10.4809 6.04746 10.2622C6.26613 10.0436 6.37546 9.77807 6.37546 9.46569C6.37546 9.15332 6.26613 8.8878 6.04746 8.66914C5.8288 8.45048 5.56329 8.34115 5.25091 8.34115C4.93854 8.34115 4.67302 8.45048 4.45436 8.66914C4.2357 8.8878 4.12637 9.15332 4.12637 9.46569C4.12637 9.77807 4.2357 10.0436 4.45436 10.2622C4.67302 10.4809 4.93854 10.5902 5.25091 10.5902ZM7.5 19.2148C5.41522 19.2148 3.64399 18.4859 2.1863 17.0282C0.728767 15.5706 0 13.7994 0 11.7148C0 10.1699 0.596711 8.53451 1.79013 6.80849C2.98371 5.08247 4.887 3.07469 7.5 0.785156C10.1599 3.18403 12.0749 5.23866 13.245 6.94906C14.415 8.65946 15 10.2519 15 11.7265C15 13.8033 14.2712 15.5706 12.8137 17.0282C11.356 18.4859 9.58478 19.2148 7.5 19.2148ZM7.5007 17.2703C9.04336 17.2703 10.3549 16.73 11.4352 15.6495C12.5154 14.5689 13.0555 13.2583 13.0555 11.7178C13.0555 10.6798 12.6413 9.53855 11.8129 8.29406C10.9843 7.04941 9.54667 5.40406 7.5 3.35802C5.45333 5.40406 4.01571 7.04941 3.18714 8.29406C2.35873 9.53855 1.94452 10.6798 1.94452 11.7178C1.94452 13.2583 2.48493 14.5689 3.56574 15.6495C4.64639 16.73 5.95805 17.2703 7.5007 17.2703Z" fill="#03346E"/>
</svg>
