<svg width="18" height="18" viewBox="0 0 18 18" fill="none" xmlns="http://www.w3.org/2000/svg">
<path d="M2.17069 18C1.56952 18 1.05745 17.7855 0.63447 17.3564C0.21149 16.9273 0 16.4183 0 15.8293V2.17069C0 1.58173 0.21149 1.0727 0.63447 0.643623C1.05745 0.214541 1.56952 0 2.17069 0H15.8293C16.4305 0 16.9426 0.214541 17.3655 0.643623C17.7885 1.0727 18 1.58173 18 2.17069V15.8293C18 16.4183 17.7885 16.9273 17.3655 17.3564C16.9426 17.7855 16.4305 18 15.8293 18H2.17069ZM2.17069 15.8293H15.8293V2.17069H2.17069V15.8293ZM3.24453 14.0964H14.7555L10.883 8.87499L8.0585 12.641L6.17549 10.1303L3.24453 14.0964Z" fill="white"/>
</svg>
