<svg width="40" height="40" viewBox="0 0 40 40" fill="none" xmlns="http://www.w3.org/2000/svg">
<rect width="40" height="40" fill="white"/>
<path d="M20.8871 6C22.4065 6.00251 23.1764 6.01056 23.8417 6.03036L24.1037 6.03892C24.4064 6.04968 24.705 6.06318 25.0651 6.08006C26.5017 6.14644 27.4817 6.37369 28.3423 6.70783C29.2322 7.05097 29.9837 7.51449 30.7341 8.2649C31.4834 9.01529 31.947 9.76907 32.2912 10.6567C32.6241 11.5163 32.8515 12.4973 32.919 13.934C32.9351 14.294 32.948 14.5926 32.9587 14.8954L32.9672 15.1574C32.9869 15.8226 32.9959 16.5927 32.9988 18.1121L32.9999 19.1187C33 19.2416 33 19.3686 33 19.4995L32.9991 20.8871C32.9965 22.4064 32.9885 23.1765 32.9687 23.8417L32.96 24.1037C32.9494 24.4065 32.9359 24.7052 32.919 25.0651C32.8526 26.5018 32.6241 27.4817 32.2912 28.3423C31.948 29.2323 31.4834 29.9839 30.7341 30.7342C29.9837 31.4835 29.2288 31.947 28.3423 32.2912C27.4817 32.6243 26.5017 32.8515 25.0651 32.919C24.705 32.9351 24.4064 32.9482 24.1037 32.9587L23.8417 32.9672C23.1764 32.987 22.4065 32.996 20.8871 32.9989L19.8804 33C19.7574 33 19.6305 33 19.4995 33L18.112 32.9991C16.5926 32.9966 15.8226 32.9885 15.1573 32.9687L14.8953 32.9602C14.5926 32.9494 14.294 32.9359 13.9339 32.919C12.4973 32.8527 11.5185 32.6243 10.6567 32.2912C9.76792 31.9482 9.01527 31.4835 8.26488 30.7342C7.51448 29.9839 7.05209 29.2289 6.70783 28.3423C6.37369 27.4817 6.14756 26.5018 6.08006 25.0651C6.06402 24.7052 6.05094 24.4065 6.04034 24.1037L6.03185 23.8417C6.0121 23.1765 6.00309 22.4064 6.00018 20.8871L6 18.1121C6.00251 16.5927 6.01054 15.8226 6.03035 15.1574L6.03892 14.8954C6.04968 14.5926 6.06318 14.294 6.08006 13.934C6.14643 12.4962 6.37369 11.5174 6.70783 10.6567C7.05096 9.76795 7.51448 9.01529 8.26488 8.2649C9.01527 7.51449 9.76906 7.05209 10.6567 6.70783C11.5174 6.37369 12.4962 6.14756 13.9339 6.08006C14.294 6.06403 14.5926 6.05095 14.8953 6.04035L15.1573 6.03186C15.8226 6.0121 16.5926 6.00309 18.112 6.00018L20.8871 6ZM19.4995 12.7493C15.7695 12.7493 12.7493 15.7728 12.7493 19.4995C12.7493 23.2296 15.7728 26.2498 19.4995 26.2498C23.2296 26.2498 26.2498 23.2263 26.2498 19.4995C26.2498 15.7695 23.2262 12.7493 19.4995 12.7493ZM19.4995 15.4494C21.7364 15.4494 23.5497 17.2621 23.5497 19.4995C23.5497 21.7364 21.737 23.5497 19.4995 23.5497C17.2627 23.5497 15.4494 21.7371 15.4494 19.4995C15.4494 17.2626 17.262 15.4494 19.4995 15.4494ZM26.5873 10.7242C25.6567 10.7242 24.8997 11.4801 24.8997 12.4106C24.8997 13.3412 25.6556 14.0982 26.5873 14.0982C27.5177 14.0982 28.2748 13.3423 28.2748 12.4106C28.2748 11.4801 27.5165 10.7231 26.5873 10.7242Z" fill="#A9A9A9"/>
</svg>
