<svg width="40" height="40" viewBox="0 0 40 40" fill="none" xmlns="http://www.w3.org/2000/svg">
<rect width="40" height="40" fill="white"/>
<path d="M20.4999 6C28.508 6 35 11.1267 35 17.4507C35 23.7748 28.508 28.9014 20.4999 28.9014C19.6876 28.9014 18.8913 28.8477 18.1154 28.7464L12.028 32.7803C11.3356 33.1516 11.0912 33.1103 11.3762 32.2025L12.6075 27.0574C8.63035 25.0156 6 21.476 6 17.4507C6 11.1267 12.4918 6 20.4999 6ZM28.6573 17.275L30.6877 15.2843C30.9464 15.0306 30.9531 14.6127 30.7029 14.3506C30.4527 14.0889 30.0402 14.0818 29.7812 14.3353L27.1185 16.9459V14.7891C27.1185 14.4246 26.8268 14.129 26.4668 14.129C26.1071 14.129 25.8152 14.4246 25.8152 14.7891V18.3665C25.7906 18.4687 25.7911 18.5744 25.8152 18.6768V20.6899C25.8152 21.0545 26.1071 21.3501 26.4668 21.3501C26.8268 21.3501 27.1185 21.0545 27.1185 20.6899V18.7834L27.709 18.2047L29.6807 21.0488C29.8076 21.2318 30.0097 21.3297 30.2146 21.3297C30.3441 21.3297 30.4748 21.2905 30.5887 21.2095C30.8832 21.0001 30.9542 20.5882 30.7474 20.2898L28.6573 17.275ZM24.5729 19.9679H22.5568V14.8098C22.5568 14.4453 22.265 14.1496 21.905 14.1496C21.5453 14.1496 21.2536 14.4453 21.2536 14.8098V20.6279C21.2536 20.9927 21.5453 21.2881 21.905 21.2881H24.5729C24.9329 21.2881 25.2245 20.9927 25.2245 20.6279C25.2245 20.2635 24.9329 19.9679 24.5729 19.9679ZM16.4845 18.441L17.4456 16.052L18.3257 18.441H16.4845ZM19.9682 19.1233C19.9685 19.1157 19.9704 19.1089 19.9704 19.1013C19.9704 18.9278 19.903 18.7714 19.7952 18.6536L18.3515 14.7353C18.2156 14.3437 17.8755 14.0839 17.4849 14.0728C17.1008 14.0623 16.7434 14.3057 16.583 14.6974L14.2892 20.3995C14.1534 20.7371 14.3135 21.1225 14.6467 21.2602C14.9801 21.3978 15.3604 21.2355 15.4961 20.8978L15.9533 19.7615H18.8121L19.224 20.8796C19.3219 21.1452 19.5704 21.3091 19.8348 21.309C19.9105 21.309 19.9874 21.2956 20.0625 21.2672C20.3998 21.1398 20.571 20.7594 20.4451 20.4177L19.9682 19.1233ZM15.3815 14.8167C15.3815 14.4522 15.0896 14.1565 14.7298 14.1565H10.2495C9.88955 14.1565 9.59771 14.4522 9.59771 14.8167C9.59771 15.1812 9.88955 15.4768 10.2495 15.4768H11.8514V20.7038C11.8514 21.0684 12.1433 21.3638 12.5031 21.3638C12.8631 21.3638 13.1549 21.0684 13.1549 20.7038V15.4768H14.7298C15.0896 15.4768 15.3815 15.1812 15.3815 14.8167Z" fill="#A9A9A9"/>
</svg>
