<svg width="18" height="16" viewBox="0 0 18 16" fill="none" xmlns="http://www.w3.org/2000/svg">
<path d="M17.1074 0C17.6004 0 18 0.395511 18 0.883022V15.117C18 15.6046 17.5902 16 17.1074 16H0.89262C0.399645 16 0 15.6045 0 15.117V0.883022C0 0.395342 0.409779 0 0.89262 0H17.1074ZM16.2 1.77778H1.8V14.2222H16.2V1.77778ZM14.4 10.6667V12.4444H3.6V10.6667H14.4ZM9 3.55556V8.88889H3.6V3.55556H9ZM14.4 7.11111V8.88889H10.8V7.11111H14.4ZM7.2 5.33333H5.4V7.11111H7.2V5.33333ZM14.4 3.55556V5.33333H10.8V3.55556H14.4Z" fill="#6EACDA"/>
</svg>
