<svg width="14" height="18" viewBox="0 0 14 18" fill="none" xmlns="http://www.w3.org/2000/svg">
<path d="M2.31569 18C1.81436 18 1.38641 17.8237 1.03184 17.471C0.677282 17.1184 0.5 16.6945 0.5 16.1992V7.99231C0.5 7.49705 0.678379 7.0731 1.03514 6.72047C1.39189 6.36783 1.82079 6.19151 2.32183 6.19151H2.70684V4.25922C2.70684 3.07894 3.12527 2.07403 3.96215 1.24451C4.79887 0.414835 5.81317 0 7.00505 0C8.19678 0 9.2094 0.414835 10.0429 1.24451C10.8764 2.07403 11.2932 3.07894 11.2932 4.25922V6.19151H11.6782C12.1792 6.19151 12.6081 6.36783 12.9649 6.72047C13.3216 7.0731 13.5 7.49705 13.5 7.99231V16.1992C13.5 16.6945 13.3215 17.1184 12.9646 17.471C12.6076 17.8237 12.1785 18 11.6773 18H2.31569ZM2.32183 16.1992H11.6782V7.99231H2.32183V16.1992ZM7.00461 13.6579C7.44053 13.6579 7.81214 13.5045 8.11944 13.1977C8.42674 12.8909 8.58039 12.5221 8.58039 12.0912C8.58039 11.6603 8.4252 11.293 8.11483 10.9892C7.80446 10.6855 7.43131 10.5336 6.99539 10.5336C6.55947 10.5336 6.18786 10.687 5.88056 10.9938C5.57326 11.3007 5.41961 11.6696 5.41961 12.1003C5.41961 12.5312 5.5748 12.8985 5.88517 13.2023C6.19554 13.506 6.56869 13.6579 7.00461 13.6579ZM4.52867 6.19151H9.47133V4.25922C9.47133 3.57637 9.23186 2.99591 8.75291 2.51787C8.27397 2.03982 7.68966 1.8008 7 1.8008C6.31034 1.8008 5.72603 2.03982 5.24709 2.51787C4.76814 2.99591 4.52867 3.57637 4.52867 4.25922V6.19151Z" fill="#6EACDA"/>
</svg>
