<svg width="23" height="22" viewBox="0 0 23 22" fill="none" xmlns="http://www.w3.org/2000/svg">
<path d="M21.8594 0.777832C22.4894 0.777832 23 1.28321 23 1.90614V20.094C23 20.7171 22.4764 21.2223 21.8594 21.2223H1.14057C0.510658 21.2223 0 20.717 0 20.094V1.90614C0 1.28299 0.523607 0.777832 1.14057 0.777832H21.8594ZM20.7 3.04944H2.3V18.9507H20.7V3.04944ZM18.4 14.4075V16.6791H4.6V14.4075H18.4ZM11.5 5.32104V12.1359H4.6V5.32104H11.5ZM18.4 9.86425V12.1359H13.8V9.86425H18.4ZM9.2 7.59265H6.9V9.86425H9.2V7.59265ZM18.4 5.32104V7.59265H13.8V5.32104H18.4Z" fill="white"/>
</svg>
