<svg width="18" height="18" viewBox="0 0 18 18" fill="none" xmlns="http://www.w3.org/2000/svg">
<path d="M0 18V16.0334H18V18H0ZM2.6684 14.7845C2.19758 14.7845 1.79655 14.5741 1.46528 14.1534C1.13402 13.7326 0.96839 13.2232 0.96839 12.6251V2.15943C0.96839 1.56138 1.13402 1.05196 1.46528 0.631178C1.79655 0.210393 2.19758 0 2.6684 0H15.3316C15.8024 0 16.2035 0.210393 16.5347 0.631178C16.866 1.05196 17.0316 1.56138 17.0316 2.15943V12.6251C17.0316 13.2232 16.866 13.7326 16.5347 14.1534C16.2035 14.5741 15.8024 14.7845 15.3316 14.7845H2.6684ZM2.6684 13H15.3316V2H2.6684V13Z" fill="#021526"/>
</svg>
