<svg width="18" height="18" viewBox="0 0 18 18" fill="none" xmlns="http://www.w3.org/2000/svg">
<path d="M8.7147 18L8.76424 15.6736L8.74582 15.6684C6.29447 15.607 4.22403 14.8209 2.53452 13.31C0.844842 11.7992 0 9.97474 0 7.83678C0 5.65543 0.873977 3.80396 2.62193 2.28238C4.36988 0.760793 6.49746 0 9.00467 0C10.2557 0 11.4246 0.206866 12.5113 0.620597C13.5979 1.03433 14.5469 1.59473 15.3584 2.30181C16.17 3.00904 16.8131 3.83643 17.2878 4.78397C17.7626 5.73166 18 6.75107 18 7.8422C18 8.93589 17.7274 9.99131 17.1822 11.0085C16.6369 12.0256 15.9246 12.9713 15.0456 13.8457C14.1663 14.7201 13.1738 15.5109 12.068 16.218C10.9624 16.9252 9.84467 17.5192 8.7147 18ZM10.8674 14.7126C12.2507 13.8086 13.4265 12.7577 14.3948 11.5599C15.3631 10.3621 15.8473 9.12287 15.8473 7.8422C15.8473 6.19993 15.1772 4.79497 13.8372 3.6273C12.4971 2.45963 10.8847 1.8758 9 1.8758C7.11527 1.8758 5.50288 2.45963 4.16282 3.6273C2.82277 4.79497 2.15274 6.19993 2.15274 7.8422C2.15274 9.48447 2.82277 10.8894 4.16282 12.0571C5.50288 13.2248 7.11527 13.8086 9 13.8086H10.8674V14.7126ZM9.00622 12.2354C9.31781 12.2354 9.58202 12.1409 9.79885 11.952C10.0159 11.7631 10.1244 11.5329 10.1244 11.2614C10.1244 10.9899 10.0159 10.7596 9.79885 10.5705C9.58202 10.3815 9.31781 10.2871 9.00622 10.2871C8.69464 10.2871 8.43035 10.3815 8.21334 10.5705C7.99651 10.7596 7.8881 10.9899 7.8881 11.2614C7.8881 11.5329 7.99651 11.7631 8.21334 11.952C8.43035 12.1409 8.69464 12.2354 9.00622 12.2354ZM8.1734 9.42963H9.8266C9.8266 9.03428 9.86429 8.72955 9.93968 8.51546C10.0151 8.30121 10.2046 8.06172 10.5082 7.797C10.8278 7.53364 11.1442 7.25882 11.4575 6.97255C11.7708 6.68629 11.9275 6.27233 11.9275 5.73068C11.9275 4.98398 11.6487 4.40896 11.0913 4.00563C10.5338 3.60214 9.84087 3.4004 9.01245 3.4004C8.2717 3.4004 7.64317 3.59167 7.12686 3.97421C6.61072 4.3569 6.25306 4.80431 6.05386 5.31643L7.55378 5.86222C7.63867 5.60262 7.79464 5.35711 8.02167 5.12568C8.24888 4.89426 8.57499 4.77854 9 4.77854C9.44213 4.77854 9.76504 4.88477 9.96873 5.09721C10.1724 5.30965 10.2743 5.53587 10.2743 5.77588C10.2743 6.07782 10.1479 6.33712 9.89507 6.55378C9.64228 6.77044 9.37928 6.99033 9.10608 7.21347C8.65236 7.5823 8.38349 7.90571 8.29945 8.18369C8.21542 8.46182 8.1734 8.87713 8.1734 9.42963Z" fill="#021526"/>
</svg>
