<svg width="18" height="18" viewBox="0 0 18 18" fill="none" xmlns="http://www.w3.org/2000/svg">
<path d="M10.7704 11.4995C11.027 11.4995 11.242 11.4127 11.4155 11.2392C11.589 11.0657 11.6758 10.8506 11.6758 10.5941C11.6758 10.3376 11.589 10.1226 11.4155 9.94905C11.242 9.77552 11.027 9.68876 10.7704 9.68876C10.5139 9.68876 10.2989 9.77552 10.1254 9.94905C9.95184 10.1226 9.86508 10.3376 9.86508 10.5941C9.86508 10.8506 9.95184 11.0657 10.1254 11.2392C10.2989 11.4127 10.5139 11.4995 10.7704 11.4995ZM10.1141 8.83024H11.4268C11.4268 8.43596 11.4635 8.14089 11.5368 7.94502C11.61 7.74916 11.7716 7.53384 12.0217 7.29905C12.3349 7.00088 12.6169 6.69909 12.8677 6.39368C13.1185 6.08827 13.2439 5.7053 13.2439 5.24478C13.2439 4.55851 13.0154 4.00971 12.5585 3.59837C12.1018 3.18703 11.5001 2.98137 10.7535 2.98137C10.1769 2.98137 9.66227 3.14267 9.20959 3.46528C8.75691 3.78789 8.44184 4.23107 8.26439 4.79481L9.44137 5.28461C9.54337 4.9448 9.71132 4.68345 9.9452 4.50057C10.1791 4.31768 10.4486 4.22624 10.7537 4.22624C11.1063 4.22624 11.3908 4.32342 11.607 4.51777C11.8231 4.71212 11.9311 4.96411 11.9311 5.27375C11.9311 5.59228 11.8142 5.86933 11.5803 6.10487C11.3464 6.34027 11.1012 6.57989 10.8447 6.82373C10.5343 7.11103 10.335 7.38279 10.2467 7.63901C10.1583 7.89523 10.1141 8.29231 10.1141 8.83024ZM5.38692 14.4917C4.86663 14.4917 4.42346 14.3087 4.05739 13.9426C3.69132 13.5765 3.50829 13.1334 3.50829 12.6131V1.87863C3.50829 1.35835 3.69132 0.915173 4.05739 0.549104C4.42346 0.183035 4.86663 0 5.38692 0H16.1214C16.6417 0 17.0848 0.183035 17.4509 0.549104C17.817 0.915173 18 1.35835 18 1.87863V12.6131C18 13.1334 17.817 13.5765 17.4509 13.9426C17.0848 14.3087 16.6417 14.4917 16.1214 14.4917H5.38692ZM5.38692 12.6131H16.1214V1.87863H5.38692V12.6131ZM1.87863 18C1.35835 18 0.915172 17.817 0.549103 17.4509C0.183034 17.0848 0 16.6417 0 16.1214V3.50829H1.87863V16.1214H14.4917V18H1.87863Z" fill="#021526"/>
</svg>
