<svg width="18" height="18" viewBox="0 0 18 18" fill="none" xmlns="http://www.w3.org/2000/svg">
<path d="M9.00826 18C7.64153 17.9053 6.40237 17.5729 5.29078 17.0027C4.17904 16.4324 3.23059 15.6696 2.44543 14.7145C1.66012 13.7594 1.05621 12.6392 0.633729 11.3538C0.211243 10.0685 0 8.67106 0 7.16135V6.15677H1.00359C1.66501 6.15677 2.40337 6.26604 3.21866 6.48457C4.03411 6.70311 4.78631 6.98576 5.47526 7.33253C5.64658 6.14152 6.05078 4.89094 6.68788 3.58079C7.32497 2.27049 8.09476 1.07689 8.99725 0C9.89973 1.07689 10.6675 2.2629 11.3007 3.55802C11.9338 4.853 12.3436 6.10358 12.5302 7.30977C13.2376 6.9674 13.9952 6.68869 14.8031 6.47364C15.6112 6.25875 16.3625 6.15131 17.057 6.15131H18V7.09601C18 8.66931 17.7944 10.1023 17.3833 11.395C16.9721 12.6876 16.3795 13.8085 15.6055 14.7579C14.8315 15.7072 13.8887 16.4603 12.7771 17.0173C11.6655 17.5741 10.4093 17.9017 9.00826 18ZM8.89744 16.0942C8.74891 13.8419 8.06516 12.017 6.8462 10.6194C5.62738 9.22203 3.98776 8.3925 1.92734 8.13087C2.08765 10.3578 2.75151 12.1801 3.91893 13.5979C5.0865 15.0156 6.746 15.8477 8.89744 16.0942ZM9.00826 10.3504C9.27564 9.9781 9.56405 9.62404 9.8735 9.28819C10.1828 8.95235 10.4751 8.66886 10.7504 8.43773C10.6863 7.6551 10.517 6.83142 10.2424 5.96669C9.96803 5.10196 9.55296 4.1873 8.99725 3.22271C8.45254 4.16195 8.03916 5.08079 7.75709 5.97921C7.47488 6.87748 7.30753 7.69699 7.25507 8.43773C7.56436 8.69405 7.88597 9.00266 8.21989 9.36354C8.55396 9.72443 8.81675 10.0534 9.00826 10.3504ZM10.7504 15.7211C11.6084 15.4479 12.3555 15.0703 12.9917 14.5884C13.6277 14.1064 14.1642 13.5397 14.6012 12.8883C15.0382 12.2368 15.3756 11.5083 15.6133 10.7028C15.851 9.89706 16.0023 9.03976 16.0672 8.13087C14.6952 8.3925 13.4844 8.87336 12.4346 9.57343C11.3846 10.2735 10.5884 11.1994 10.0458 12.3511C10.2104 12.8232 10.3537 13.336 10.4756 13.8895C10.5976 14.4428 10.6893 15.0533 10.7504 15.7211Z" fill="#021526"/>
</svg>
