<svg width="18" height="18" viewBox="0 0 18 18" fill="none" xmlns="http://www.w3.org/2000/svg">
<path d="M4.8158 5.78571C5.08741 5.78571 5.31696 5.69384 5.50446 5.51009C5.69196 5.32634 5.78571 5.09866 5.78571 4.82705C5.78571 4.55545 5.69384 4.32589 5.51009 4.13839C5.32634 3.95089 5.09866 3.85714 4.82705 3.85714C4.55545 3.85714 4.32589 3.94902 4.13839 4.13277C3.95089 4.31652 3.85714 4.5442 3.85714 4.8158C3.85714 5.08741 3.94902 5.31696 4.13277 5.50446C4.31652 5.69196 4.5442 5.78571 4.8158 5.78571ZM4.8158 9.96429C5.08741 9.96429 5.31696 9.87241 5.50446 9.68866C5.69196 9.50491 5.78571 9.27723 5.78571 9.00562C5.78571 8.73402 5.69384 8.50446 5.51009 8.31696C5.32634 8.12946 5.09866 8.03571 4.82705 8.03571C4.55545 8.03571 4.32589 8.12759 4.13839 8.31134C3.95089 8.49509 3.85714 8.72277 3.85714 8.99438C3.85714 9.26598 3.94902 9.49554 4.13277 9.68304C4.31652 9.87054 4.5442 9.96429 4.8158 9.96429ZM4.8158 14.1429C5.08741 14.1429 5.31696 14.051 5.50446 13.8672C5.69196 13.6835 5.78571 13.4558 5.78571 13.1842C5.78571 12.9126 5.69384 12.683 5.51009 12.4955C5.32634 12.308 5.09866 12.2143 4.82705 12.2143C4.55545 12.2143 4.32589 12.3062 4.13839 12.4899C3.95089 12.6737 3.85714 12.9013 3.85714 13.1729C3.85714 13.4446 3.94902 13.6741 4.13277 13.8616C4.31652 14.0491 4.5442 14.1429 4.8158 14.1429ZM1.92857 18C1.39821 18 0.944196 17.8112 0.566518 17.4335C0.188839 17.0558 0 16.6018 0 16.0714V1.92857C0 1.39821 0.188839 0.944197 0.566518 0.566519C0.944196 0.18884 1.39821 0 1.92857 0H12.8571L18 5.14286V16.0714C18 16.6018 17.8112 17.0558 17.4335 17.4335C17.0558 17.8112 16.6018 18 16.0714 18H1.92857ZM1.92857 16.0714H16.0714V6.42857H11.5714V1.92857H1.92857V16.0714Z" fill="#021526"/>
</svg>
