<svg width="38" height="38" viewBox="0 0 38 38" fill="none" xmlns="http://www.w3.org/2000/svg">
<path d="M36.3753 38L31.2689 32.9128H4.69959V29.0852C4.69959 28.0021 4.98658 27.0586 5.56057 26.2548C6.13456 25.451 6.88027 24.8331 7.7977 24.4013C9.81405 23.4939 11.7645 22.8011 13.6491 22.3229C15.5337 21.8447 17.4234 21.5913 19.3181 21.5628H19.6286C19.7318 21.5628 19.8415 21.5693 19.9578 21.5824L0 1.62467L1.64433 0L38 36.3557L36.3753 38ZM6.98764 30.6247H28.9809L22.3426 23.9673C21.9316 23.9205 21.5167 23.8874 21.098 23.868C20.6793 23.8488 20.254 23.8392 19.8222 23.8392C17.9584 23.8392 16.1353 24.0325 14.3528 24.4189C12.5704 24.8054 10.7046 25.4807 8.75547 26.4448C8.22046 26.7187 7.79199 27.0961 7.47005 27.577C7.14844 28.0579 6.98764 28.5607 6.98764 29.0852V30.6247ZM32.2418 24.6145C32.883 24.9042 33.4032 25.3281 33.8025 25.8863C34.202 26.4448 34.4018 27.1235 34.4018 27.9223V28.2091L29.9079 23.7344C30.2803 23.8456 30.6608 23.982 31.0497 24.1437C31.4388 24.305 31.8362 24.4619 32.2418 24.6145ZM23.0791 16.7508L21.2608 14.9325C22.1396 14.6583 22.8531 14.147 23.4012 13.3986C23.9493 12.6502 24.2233 11.7966 24.2233 10.8378C24.2233 9.59947 23.7994 8.55635 22.9515 7.70848C22.1037 6.86061 21.0605 6.43667 19.8222 6.43667C18.8631 6.43667 18.0093 6.71073 17.2609 7.25883C16.5125 7.80661 15.995 8.52006 15.7083 9.39918L13.9087 7.58044C14.4827 6.48456 15.299 5.63853 16.3576 5.04237C17.4162 4.44654 18.571 4.14863 19.8222 4.14863C21.6937 4.14863 23.2763 4.79554 24.5701 6.08936C25.864 7.38318 26.5109 8.96601 26.5109 10.8378C26.5109 12.089 26.213 13.2437 25.6171 14.3019C25.0213 15.3605 24.1753 16.1768 23.0791 16.7508Z" fill="#FF5353"/>
</svg>
