<svg width="21" height="18" viewBox="0 0 21 18" fill="none" xmlns="http://www.w3.org/2000/svg">
<path d="M10.4985 14.4252C11.7364 14.4252 12.789 13.993 13.6563 13.1285C14.5236 12.264 14.9572 11.2143 14.9572 9.97938C14.9572 8.74428 14.524 7.69399 13.6576 6.82854C12.7912 5.96325 11.7391 5.5306 10.5015 5.5306C9.26363 5.5306 8.21102 5.96284 7.34365 6.82732C6.47645 7.69179 6.04284 8.7415 6.04284 9.97645C6.04284 11.2116 6.47604 12.2618 7.34243 13.1273C8.20882 13.9926 9.26085 14.4252 10.4985 14.4252ZM10.5 12.3176C9.84122 12.3176 9.28576 12.0919 8.83362 11.6406C8.38131 11.1895 8.15516 10.6352 8.15516 9.97791C8.15516 9.32059 8.38131 8.76636 8.83362 8.31521C9.28576 7.86391 9.84122 7.63825 10.5 7.63825C11.1588 7.63825 11.7142 7.86391 12.1664 8.31521C12.6187 8.76636 12.8448 9.32059 12.8448 9.97791C12.8448 10.6352 12.6187 11.1895 12.1664 11.6406C11.7142 12.0919 11.1588 12.3176 10.5 12.3176ZM2.72968 18C2.11256 18 1.58666 17.7831 1.152 17.3494C0.717333 16.9157 0.5 16.391 0.5 15.7752V4.18059C0.5 3.56483 0.717333 3.04009 1.152 2.60639C1.58666 2.17268 2.11256 1.95583 2.72968 1.95583H5.64125L7.53624 0H13.4638L15.3587 1.95583H18.2703C18.8874 1.95583 19.4133 2.17268 19.848 2.60639C20.2827 3.04009 20.5 3.56483 20.5 4.18059V15.7752C20.5 16.391 20.2827 16.9157 19.848 17.3494C19.4133 17.7831 18.8874 18 18.2703 18H2.72968ZM2.72968 15.7752H18.2703V4.18059H14.389L12.5359 2.22476H8.48177L6.59365 4.18059H2.72968V15.7752Z" fill="#6EACDA"/>
</svg>
