<svg width="19" height="18" viewBox="0 0 19 18" fill="none" xmlns="http://www.w3.org/2000/svg">
<path d="M8.62991 13.4505H10.3701V9.87009H13.9505V8.12991H10.3701V4.54946H8.62991V8.12991H5.04946V9.87009H8.62991V13.4505ZM9.50643 18C8.26413 18 7.09651 17.7657 6.00356 17.2972C4.91045 16.8287 3.95413 16.1848 3.13461 15.3654C2.31524 14.5459 1.6713 13.5899 1.20278 12.4976C0.734259 11.4052 0.5 10.2359 0.5 8.98944C0.5 7.74317 0.734259 6.57738 1.20278 5.49208C1.6713 4.40662 2.31524 3.45413 3.13461 2.63461C3.95413 1.81524 4.91007 1.1713 6.00241 0.702777C7.09475 0.234259 8.26413 0 9.51056 0C10.7568 0 11.9226 0.234259 13.0079 0.702777C14.0934 1.1713 15.0459 1.81524 15.8654 2.63461C16.6848 3.45413 17.3287 4.40831 17.7972 5.49713C18.2657 6.58595 18.5 7.75143 18.5 8.99357C18.5 10.2359 18.2657 11.4035 17.7972 12.4964C17.3287 13.5895 16.6848 14.5459 15.8654 15.3654C15.0459 16.1848 14.0917 16.8287 13.0029 17.2972C11.914 17.7657 10.7486 18 9.50643 18ZM9.5 16.095C11.4744 16.095 13.1506 15.4062 14.5285 14.0285C15.9062 12.6506 16.595 10.9744 16.595 9C16.595 7.02555 15.9062 5.3494 14.5285 3.97154C13.1506 2.59383 11.4744 1.90498 9.5 1.90498C7.52555 1.90498 5.8494 2.59383 4.47154 3.97154C3.09383 5.3494 2.40498 7.02555 2.40498 9C2.40498 10.9744 3.09383 12.6506 4.47154 14.0285C5.8494 15.4062 7.52555 16.095 9.5 16.095Z" fill="white"/>
</svg>
