<svg width="19" height="18" viewBox="0 0 19 18" fill="none" xmlns="http://www.w3.org/2000/svg">
<path d="M9.2147 18L9.26424 15.6736L9.24582 15.6684C6.79447 15.607 4.72403 14.8209 3.03452 13.31C1.34484 11.7992 0.5 9.97474 0.5 7.83678C0.5 5.65543 1.37398 3.80396 3.12193 2.28238C4.86988 0.760793 6.99746 0 9.50467 0C10.7557 0 11.9246 0.206866 13.0113 0.620597C14.0979 1.03433 15.0469 1.59473 15.8584 2.30181C16.67 3.00904 17.3131 3.83643 17.7878 4.78397C18.2626 5.73166 18.5 6.75107 18.5 7.8422C18.5 8.93589 18.2274 9.99131 17.6822 11.0085C17.1369 12.0256 16.4246 12.9713 15.5456 13.8457C14.6663 14.7201 13.6738 15.5109 12.568 16.218C11.4624 16.9252 10.3447 17.5192 9.2147 18ZM11.3674 14.7126C12.7507 13.8086 13.9265 12.7577 14.8948 11.5599C15.8631 10.3621 16.3473 9.12287 16.3473 7.8422C16.3473 6.19993 15.6772 4.79497 14.3372 3.6273C12.9971 2.45963 11.3847 1.8758 9.5 1.8758C7.61527 1.8758 6.00288 2.45963 4.66282 3.6273C3.32277 4.79497 2.65274 6.19993 2.65274 7.8422C2.65274 9.48447 3.32277 10.8894 4.66282 12.0571C6.00288 13.2248 7.61527 13.8086 9.5 13.8086H11.3674V14.7126ZM9.50622 12.2354C9.81781 12.2354 10.082 12.1409 10.2988 11.952C10.5159 11.7631 10.6244 11.5329 10.6244 11.2614C10.6244 10.9899 10.5159 10.7596 10.2988 10.5705C10.082 10.3815 9.81781 10.2871 9.50622 10.2871C9.19464 10.2871 8.93035 10.3815 8.71334 10.5705C8.49651 10.7596 8.3881 10.9899 8.3881 11.2614C8.3881 11.5329 8.49651 11.7631 8.71334 11.952C8.93035 12.1409 9.19464 12.2354 9.50622 12.2354ZM8.6734 9.42963H10.3266C10.3266 9.03428 10.3643 8.72955 10.4397 8.51546C10.5151 8.30121 10.7046 8.06172 11.0082 7.797C11.3278 7.53364 11.6442 7.25882 11.9575 6.97255C12.2708 6.68629 12.4275 6.27233 12.4275 5.73068C12.4275 4.98398 12.1487 4.40896 11.5913 4.00563C11.0338 3.60214 10.3409 3.4004 9.51245 3.4004C8.7717 3.4004 8.14317 3.59167 7.62686 3.97421C7.11072 4.3569 6.75306 4.80431 6.55386 5.31643L8.05378 5.86222C8.13867 5.60262 8.29464 5.35711 8.52167 5.12568C8.74888 4.89426 9.07499 4.77854 9.5 4.77854C9.94213 4.77854 10.265 4.88477 10.4687 5.09721C10.6724 5.30965 10.7743 5.53587 10.7743 5.77588C10.7743 6.07782 10.6479 6.33712 10.3951 6.55378C10.1423 6.77044 9.87928 6.99033 9.60608 7.21347C9.15236 7.5823 8.88349 7.90571 8.79945 8.18369C8.71542 8.46182 8.6734 8.87713 8.6734 9.42963Z" fill="white"/>
</svg>
