<svg width="16" height="18" viewBox="0 0 16 18" fill="none" xmlns="http://www.w3.org/2000/svg">
<path d="M9.48683 17.8943C9.26569 18.0113 9.04715 18.0312 8.83122 17.9539C8.61528 17.8766 8.45446 17.7156 8.34875 17.4708L7.11641 14.743C7.0107 14.5019 6.99358 14.2618 7.06506 14.0227C7.13653 13.7837 7.28202 13.6057 7.50152 13.4887C7.70732 13.3719 7.92161 13.352 8.14439 13.4292C8.36717 13.5064 8.53142 13.6657 8.63713 13.907L9.86947 16.6348C9.97518 16.8795 9.99312 17.1214 9.92329 17.3604C9.85345 17.5993 9.70797 17.7773 9.48683 17.8943ZM13.5536 17.8943C13.3324 18.0113 13.1105 18.0312 12.8877 17.9539C12.6649 17.8766 12.5007 17.7156 12.395 17.4708L11.1626 14.743C11.0569 14.5019 11.0432 14.2618 11.1215 14.0227C11.1999 13.7837 11.3488 13.6057 11.5683 13.4887C11.7878 13.3719 12.0055 13.352 12.2214 13.4292C12.4373 13.5064 12.5982 13.6657 12.7039 13.907L13.9362 16.6348C14.0419 16.8795 14.0599 17.1214 13.99 17.3604C13.9202 17.5993 13.7747 17.7773 13.5536 17.8943ZM5.42008 17.8943C5.19894 18.0113 4.97698 18.0312 4.7542 17.9539C4.53142 17.8766 4.36717 17.7156 4.26146 17.4708L3.02911 14.743C2.92341 14.5019 2.90971 14.2618 2.98804 14.0227C3.06636 13.7837 3.21527 13.6057 3.43476 13.4887C3.65426 13.3719 3.87197 13.352 4.08791 13.4292C4.30384 13.5064 4.46466 13.6657 4.57037 13.907L5.80272 16.6348C5.90843 16.8795 5.92637 17.1214 5.85653 17.3604C5.7867 17.5993 5.64122 17.7773 5.42008 17.8943ZM4.20026 12.2523C3.00693 12.2523 2.00852 11.7737 1.20503 10.8164C0.401677 9.85908 0 8.71242 0 7.37641C0 6.18785 0.362721 5.16303 1.08816 4.30196C1.81361 3.44104 2.71 2.92753 3.77736 2.76144C4.20128 1.91279 4.79295 1.24039 5.55235 0.744234C6.31161 0.248079 7.12743 0 7.99979 0C9.17696 0 10.2042 0.412958 11.0815 1.23887C11.9589 2.06479 12.5033 3.11029 12.7146 4.37538C13.6418 4.42751 14.4212 4.84145 15.0527 5.61721C15.6842 6.39311 16 7.29018 16 8.3084C16 9.40195 15.6536 10.3327 14.9607 11.1005C14.2677 11.8684 13.4263 12.2523 12.4365 12.2523H4.20026ZM4.30295 10.3656H12.4365C12.9525 10.3656 13.3913 10.1657 13.7528 9.76573C14.1144 9.36595 14.2953 8.88063 14.2953 8.30977C14.2953 7.7389 14.1144 7.25313 13.7528 6.85244C13.3913 6.45161 12.9525 6.25119 12.4365 6.25119H11.2349L11.0501 4.76227C10.9405 3.93287 10.5956 3.2463 10.0153 2.70256C9.435 2.15867 8.76337 1.88672 8.00041 1.88672C7.39314 1.88672 6.83837 2.06987 6.33612 2.43615C5.83374 2.80228 5.45054 3.29093 5.18655 3.90211L4.87107 4.61452H4.30788C3.58449 4.6133 2.96982 4.89222 2.46388 5.45127C1.95779 6.01031 1.70475 6.68931 1.70475 7.48825C1.70475 8.28673 1.95731 8.96595 2.46244 9.52591C2.96757 10.0857 3.58107 10.3656 4.30295 10.3656Z" fill="#B3BDCD"/>
</svg>
