<svg width="14" height="20" viewBox="0 0 14 20" fill="none" xmlns="http://www.w3.org/2000/svg">
<path d="M6.99924 13.2021C6.09103 13.2021 5.3193 12.8843 4.68405 12.2487C4.04881 11.6132 3.73119 10.8413 3.73119 9.9333V3.89857C3.73119 2.99053 4.04906 2.21871 4.68481 1.58313C5.32056 0.947552 6.09255 0.629761 7.00076 0.629761C7.90897 0.629761 8.6807 0.947552 9.31595 1.58313C9.95119 2.21871 10.2688 2.99053 10.2688 3.89857V9.9333C10.2688 10.8413 9.95094 11.6132 9.31519 12.2487C8.67944 12.8843 7.90745 13.2021 6.99924 13.2021ZM5.9975 19.3703V16.8391C4.26109 16.6099 2.82745 15.8425 1.69657 14.5371C0.565524 13.2318 0 11.6972 0 9.9333H2.01107C2.01107 11.3149 2.49818 12.4917 3.4724 13.4639C4.44662 14.4361 5.62476 14.9222 7.00684 14.9222C8.38908 14.9222 9.56503 14.4359 10.5347 13.4632C11.5042 12.4903 11.9889 11.3137 11.9889 9.9333H14C14 11.6982 13.4345 13.2331 12.3034 14.5378C11.1726 15.8428 9.73891 16.6099 8.0025 16.8391V19.3703H5.9975ZM7 11.1004C7.3307 11.1004 7.6079 10.9885 7.83157 10.7649C8.05525 10.5412 8.16709 10.264 8.16709 9.9333V3.89857C8.16709 3.56787 8.05525 3.29068 7.83157 3.067C7.6079 2.84332 7.3307 2.73148 7 2.73148C6.6693 2.73148 6.3921 2.84332 6.16843 3.067C5.94475 3.29068 5.83291 3.56787 5.83291 3.89857V9.9333C5.83291 10.264 5.94475 10.5412 6.16843 10.7649C6.3921 10.9885 6.6693 11.1004 7 11.1004Z" fill="#B3BDCD"/>
</svg>
