<svg width="18" height="18" viewBox="0 0 18 18" fill="none" xmlns="http://www.w3.org/2000/svg">
<path d="M6.43937 13.4813L13.4813 9L6.43937 4.5187V13.4813ZM2.17069 18C1.56952 18 1.05745 17.7885 0.63447 17.3655C0.21149 16.9426 0 16.4305 0 15.8293V2.17069C0 1.56952 0.21149 1.05745 0.63447 0.63447C1.05745 0.21149 1.56952 0 2.17069 0H15.8293C16.4305 0 16.9426 0.21149 17.3655 0.63447C17.7885 1.05745 18 1.56952 18 2.17069V15.8293C18 16.4305 17.7885 16.9426 17.3655 17.3655C16.9426 17.7885 16.4305 18 15.8293 18H2.17069ZM2.17069 15.8293H15.8293V2.17069H2.17069V15.8293Z" fill="white"/>
</svg>
