<svg width="19" height="18" viewBox="0 0 19 18" fill="none" xmlns="http://www.w3.org/2000/svg">
<path d="M2.42196 17.9973C1.88968 17.9973 1.43628 17.81 1.06177 17.4355C0.687257 17.061 0.5 16.6076 0.5 16.0753V3.98174C0.5 3.44297 0.686099 2.98409 1.0583 2.6051C1.43049 2.22611 1.88505 2.04433 2.42196 2.05977H10.4284L8.50648 3.98174H2.42196V16.0753H14.5155V10.0019L16.4375 8.07992V16.0753C16.4375 16.6076 16.2502 17.061 15.8757 17.4355C15.5012 17.81 15.0478 17.9973 14.5155 17.9973H2.42196ZM6.15706 12.3402V8.66994L14.2714 0.561104C14.467 0.365512 14.6799 0.223564 14.9101 0.135262C15.1404 0.0469595 15.3764 0.00280762 15.618 0.00280762C15.8698 0.00280762 16.1121 0.0469595 16.3449 0.135262C16.5778 0.223564 16.7916 0.363813 16.9863 0.556009L17.9361 1.50402C18.1354 1.69962 18.2792 1.91505 18.3675 2.15031C18.4558 2.38558 18.5 2.62494 18.5 2.86839C18.5 3.11199 18.455 3.35204 18.365 3.58854C18.2752 3.82505 18.1322 4.04117 17.9361 4.23692L9.82731 12.3402H6.15706ZM7.96833 10.5289H9.07173L14.371 5.22962L13.8329 4.66623L13.2732 4.12623L7.96833 9.42552V10.5289Z" fill="white"/>
</svg>
